<mxfile host="app.diagrams.net" modified="2023-07-30T06:02:39.548Z" agent="Mozilla/5.0 (Macintosh; Intel Mac OS X 10.15; rv:109.0) Gecko/20100101 Firefox/115.0" version="21.6.5" etag="TUVG81Ps80CU0dOik7pd" type="github">
  <diagram name="第 1 页" id="YDd7AVCflBX930HyJPfi">
    <mxGraphModel>
      <root>
        <mxCell id="0" />
        <mxCell id="1" parent="0" />
      </root>
    </mxGraphModel>
  </diagram>
</mxfile>
